<svg height="512pt" viewBox="-169 0 512 512" width="512pt" xmlns="http://www.w3.org/2000/svg"><path d="m124.628906 224.128906c-8.285156 0-15 6.714844-15 15v257.871094c0 8.285156 6.714844 15 15 15s15-6.714844 15-15v-257.871094c0-8.285156-6.714844-15-15-15zm0 0" fill="#97a2cf"/><path d="m130.835938 0h-26.832032c-8.28125 0-15 6.714844-15 15s6.71875 15 15 15h26.832032c8.285156 0 15-6.714844 15-15s-6.714844-15-15-15zm0 0" fill="#ff75b6"/><path d="m138.042969 0h-13.414063v30h13.414063c8.285156 0 15-6.714844 15-15s-6.714844-15-15-15zm0 0" fill="#ff3999"/><path d="m158.554688 15.09375h-90.835938c-37.339844 0-67.71875 30.378906-67.71875 67.71875v5.804688c0 4.882812 2.375 9.457031 6.367188 12.269531 3.992187 2.808593 9.097656 3.5 13.691406 1.851562l21.820312-7.816406c3.445313-1.234375 6.117188.097656 7.398438 1.003906 1.285156.902344 3.441406 2.96875 3.441406 6.628907v136.574218c0 8.28125 6.71875 15 15 15h2.824219v31.375c0 40.449219 15.347656 78.867188 43.214843 108.183594 2.835938 2.984375 6.769532 4.664062 10.871094 4.664062.175782 0 .351563-.003906.527344-.007812 4.289062-.152344 8.3125-2.132812 11.042969-5.445312l1.449219-1.757813c23.15625-28.0625 35.90625-63.550781 35.90625-99.929687v-261.117188c0-8.285156-6.714844-15-15-15zm0 0" fill="#f5f6fa"/><path d="m158.554688 15.09375h-33.925782v383.257812c.175782 0 .351563-.003906.527344-.007812 4.289062-.152344 8.308594-2.132812 11.042969-5.445312l1.449219-1.757813c23.15625-28.0625 35.90625-63.550781 35.90625-99.933594v-261.113281c0-8.285156-6.714844-15-15-15zm0 0" fill="#c1d7f7"/><path d="m173.554688 286.5h-103c.0625 10.171875 1.097656 20.207031 3.054687 30h97.875c1.367187-8.328125 2.070313-16.785156 2.070313-25.292969zm0 0" fill="#00cbd4"/><path d="m123.878906 286.5.199219 30h47.40625c1.363281-8.328125 2.070313-16.785156 2.070313-25.292969v-4.707031zm0 0" fill="#00969c"/><path d="m139.628906 167.027344v-36.851563c0-8.28125-6.714844-15-15-15s-15 6.71875-15 15v36.851563c0 8.285156 6.714844 15 15 15s15-6.714844 15-15zm0 0" fill="#c1d7f7"/><path d="m139.628906 167.027344v-36.851563c0-8.28125-6.714844-15-15-15v66.851563c8.285156 0 15-6.714844 15-15zm0 0" fill="#7d8aba"/></svg>