<svg height="512pt" viewBox="-169 0 512 512" width="512pt" xmlns="http://www.w3.org/2000/svg"><path d="m173.554688 30.09375c0-8.285156-6.714844-15-15-15h-14.003907c0-.03125.007813-.0625.007813-.09375 0-8.285156-6.71875-15-15-15h-26.832032c-8.285156 0-15 6.714844-15 15 0 .03125.003907.0625.003907.09375h-20.011719c-37.339844 0-67.71875 30.378906-67.71875 67.71875v5.804688c0 4.882812 2.375 9.457031 6.367188 12.269531 3.992187 2.808593 9.097656 3.5 13.691406 1.851562l21.820312-7.816406c3.445313-1.234375 6.117188.097656 7.398438 1.003906 1.285156.902344 3.441406 2.96875 3.441406 6.628907v136.574218c0 8.28125 6.71875 15 15 15h2.824219v31.375c0 38.398438 13.839843 74.964844 39.085937 103.652344v107.84375c0 8.285156 6.71875 15 15 15 8.285156 0 15-6.714844 15-15v-108.3125c21.898438-27.664062 33.929688-62.152344 33.929688-97.480469v-261.113281zm-49.609376 328.902344c-9.15625-12.875-15.757812-27.269532-19.574218-42.496094h36.613281c-3.070313 15.046875-8.832031 29.472656-17.039063 42.496094zm-56.226562-313.902344h75.835938v241.40625h-42.996094c0-.332031-.019532-.664062-.019532-.996094v-46.375c0-8.285156-6.714843-15-15-15h-2.820312v-121.574218c0-12.382813-6.046875-24.03125-16.171875-31.160157-9.488281-6.679687-21.503906-8.648437-32.570313-5.433593 6.199219-12.363282 18.996094-20.867188 33.742188-20.867188zm0 0"/><path d="m111.046875 182.027344c8.285156 0 15-6.714844 15-15v-36.851563c0-8.28125-6.714844-15-15-15s-15 6.71875-15 15v36.851563c0 8.285156 6.714844 15 15 15zm0 0"/></svg>