<svg xmlns="http://www.w3.org/2000/svg" id="닥터인비보4D6_로고" width="88.973" height="10" data-name="닥터인비보4D6 로고" viewBox="0 0 88.973 10">
    <defs>
        <style>
            .cls-1,.cls-2{fill:#fff}.cls-1{fill-rule:evenodd}
        </style>
    </defs>
	<g fill ="white">
    <path id="패스_2" d="M2817.972 738.747h-2.621a1.032 1.032 0 0 0-.322.052v-1.138a.321.321 0 0 1 .321-.321h3.334l.01-.751h-3.343a1.034 1.034 0 0 0-1.034 1.033v3.1a1.034 1.034 0 0 0 1.034 1.034h2.621a1.034 1.034 0 0 0 1.033-1.034v-.941a1.034 1.034 0 0 0-1.033-1.034m.312 1.928a.322.322 0 0 1-.322.321h-2.612a.321.321 0 0 1-.321-.321v-.855a.321.321 0 0 1 .321-.321h2.612a.322.322 0 0 1 .322.321z" class="cls-1" data-name="패스 2" transform="translate(-2730.033 -731.827)"/>
    <path id="패스_3" d="M2545.487 737.471h-1.078l-3.23 3.065v.755h3.554v1.3h.755v-1.3h.865v-.755h-.865zm-3.212 3.065l2.457-2.332v2.332z" class="cls-1" data-name="패스 3" transform="translate(-2467.358 -732.672)"/>
    <path id="패스_4" d="M2227.309 624.226h-5.073a2 2 0 0 0-2 2v6a2 2 0 0 0 2 2h5.073a2 2 0 0 0 2-2v-6a2 2 0 0 0-2-2m.6 7.909a.622.622 0 0 1-.622.622h-5.057a.622.622 0 0 1-.622-.622V626.3a.622.622 0 0 1 .622-.622h5.057a.622.622 0 0 1 .622.622z" class="cls-1" data-name="패스 4" transform="translate(-2160.016 -624.226)"/>
    <path id="패스_5" d="M804.547 624.225h-5.3v9.938h5.3a2 2 0 0 0 2-2v-5.937a2 2 0 0 0-2-2m.6 7.847a.622.622 0 0 1-.622.622h-3.9v-7.015h3.9a.622.622 0 0 1 .622.622z" class="cls-1" data-name="패스 5" transform="translate(-799.25 -624.225)"/>
    <path id="패스_6" d="M1015.673 685.975v5.406h1.454v-5.387a.622.622 0 0 1 .622-.622h2.532l.012-1.4h-2.619a2 2 0 0 0-2 2" class="cls-1" data-name="패스 6" transform="translate(-1006.501 -681.443)"/>
    <path id="사각형_3" d="M0 0h1.6v1.6H0z" class="cls-2" data-name="사각형 3" transform="translate(14.525 8.338)"/>
    <path id="패스_7" d="M1382.942 624.225h-4.157a2.176 2.176 0 0 0-2.177 2.177v7.762h1.527v-7.595a.725.725 0 0 1 .725-.725h4.028a.725.725 0 0 1 .725.725v7.595h1.505V626.4a2.176 2.176 0 0 0-2.176-2.177" class="cls-1" data-name="패스 7" transform="translate(-1352.14 -624.225)"/>
    <path id="사각형_4" d="M0 0h1.582v9.938H0z" class="cls-2" data-name="사각형 4" transform="translate(20.767)"/>
    <path id="패스_8" d="M1608.3 631.816c-.118.328-.169.692-.565.692h-1.622c-.4 0-.448-.364-.566-.692s-2.2-7.59-2.2-7.59h-1.66l2.343 8.087a2.39 2.39 0 0 0 2.057 1.852h1.666a2.39 2.39 0 0 0 2.057-1.852c.3-1.025 2.342-8.087 2.342-8.087h-1.66s-2.078 7.263-2.2 7.59" class="cls-1" data-name="패스 8" transform="translate(-1567.681 -624.226)"/>
    <path id="패스_9" d="M1964 631.816c-.118.328-.169.692-.565.692h-1.623c-.4 0-.448-.364-.565-.692s-2.2-7.59-2.2-7.59h-1.66l2.343 8.087a2.39 2.39 0 0 0 2.057 1.852h1.666a2.39 2.39 0 0 0 2.057-1.852l2.342-8.087h-1.66s-2.078 7.263-2.2 7.59" class="cls-1" data-name="패스 9" transform="translate(-1908.309 -624.226)"/>
    <path id="사각형_5" d="M0 0h1.582v9.938H0z" class="cls-2" data-name="사각형 5" transform="translate(46.105)"/>
    <path id="패스_10" d="M2682.1 737.923h-2.715v5.1h2.715a1.026 1.026 0 0 0 1.026-1.026v-3.044a1.025 1.025 0 0 0-1.026-1.026m.31 4.023a.319.319 0 0 1-.319.319h-2v-3.6h2a.319.319 0 0 1 .319.319z" class="cls-1" data-name="패스 10" transform="translate(-2599.706 -733.105)"/>
</g>
</svg>
