<?xml version="1.0" encoding="utf-8"?>
<!-- Generator: Adobe Illustrator 21.1.0, SVG Export Plug-In . SVG Version: 6.00 Build 0)  -->
<svg version="1.1" id="Layer_1" xmlns="http://www.w3.org/2000/svg" xmlns:xlink="http://www.w3.org/1999/xlink" x="0px" y="0px"
	 viewBox="0 0 125 125" style="enable-background:new 0 0 125 125;" xml:space="preserve">
<style type="text/css">
	.st0{fill:none;stroke:#000000;stroke-width:2;stroke-linecap:round;stroke-linejoin:round;stroke-miterlimit:10;}
	.st1{fill:none;stroke:#000000;stroke-width:2;stroke-miterlimit:10;}
</style>
<g>
	<path class="st0" d="M49.7,112.6L12.4,75.3c-2.7-2.7-2.7-7.1,0-9.8l53.2-53.2c2.7-2.7,7.1-2.7,9.8,0l37.2,37.2
		c2.7,2.7,2.7,7.1,0,9.8l-53.2,53.2C56.7,115.3,52.3,115.3,49.7,112.6z"/>
	<g>
		<ellipse transform="matrix(0.7071 -0.7071 0.7071 0.7071 -3.9928 59.3343)" class="st0" cx="69.6" cy="34.5" rx="8" ry="8"/>
		<ellipse transform="matrix(0.7071 -0.7071 0.7071 0.7071 -12.6443 80.221)" class="st0" cx="90.5" cy="55.4" rx="8" ry="8"/>
		<ellipse transform="matrix(0.7071 -0.7071 0.7071 0.7071 -21.5626 52.0567)" class="st0" cx="52.1" cy="52.1" rx="8" ry="8"/>
		<ellipse transform="matrix(0.7071 -0.7071 0.7071 0.7071 -30.2141 72.9433)" class="st0" cx="72.9" cy="72.9" rx="8" ry="8"/>
		<ellipse transform="matrix(0.7071 -0.7071 0.7071 0.7071 -39.1324 44.779)" class="st0" cx="34.5" cy="69.6" rx="8" ry="8"/>
		<ellipse transform="matrix(0.7071 -0.7071 0.7071 0.7071 -47.7839 65.6657)" class="st0" cx="55.4" cy="90.5" rx="8" ry="8"/>
	</g>
</g>
</svg>
