<svg id="레이어_1" data-name="레이어 1" xmlns="http://www.w3.org/2000/svg" viewBox="0 0 400.92 400.92">
  <title>UV 아이콘_4</title>
  <g>
    <path d="M394.27,167.53A113.25,113.25,0,1,0,507.51,280.78,113.25,113.25,0,0,0,394.27,167.53Zm-6.73,117.79c0,24.87-10.64,35.09-29,35.09s-29.11-10.22-29.11-35.09V244.15h14.95v42.48c0,15.58,5.36,20.83,14.16,20.83s14.59-5.25,14.59-20.83V244.15h14.36Zm48,33.68h-17.8l-22.84-74.85h15.67l9.89,36.4c2.34,8.32,3.85,15.81,6.28,24.19h.52c2.3-8.38,4-15.87,6.38-24.19l9.69-36.4h15.18Z" transform="translate(-193.52 -80.32)"/>
    <path d="M585.28,271.61H525.46c.22,3.09.92,6,.92,9.17s-.7,6.08-.92,9.16h59.82a9.17,9.17,0,0,0,0-18.33Z" transform="translate(-193.52 -80.32)"/>
    <path d="M262.15,280.78c0-3.14.71-6.08.92-9.17H202.68a9.17,9.17,0,0,0,0,18.33h60.39C262.86,286.86,262.15,283.92,262.15,280.78Z" transform="translate(-193.52 -80.32)"/>
    <path d="M384.81,411.94v60.13a9.17,9.17,0,1,0,18.34,0V412c-3,.2-5.84.9-8.88.9C391,412.9,388,412.17,384.81,411.94Z" transform="translate(-193.52 -80.32)"/>
    <path d="M403.15,149.55V89.48a9.17,9.17,0,0,0-18.34,0v60.13c3.18-.23,6.22-1,9.46-1C397.31,148.66,400.16,149.35,403.15,149.55Z" transform="translate(-193.52 -80.32)"/>
    <path d="M493.42,367.25a132.22,132.22,0,0,1-13,12.94l42.34,42.34a9.17,9.17,0,0,0,13-13Z" transform="translate(-193.52 -80.32)"/>
    <path d="M294.86,194.62a130.06,130.06,0,0,1,12.93-13L265.2,139a9.17,9.17,0,1,0-13,13Z" transform="translate(-193.52 -80.32)"/>
    <path d="M252.23,409.56a9.17,9.17,0,0,0,13,13l42.59-42.6a131,131,0,0,1-12.93-13Z" transform="translate(-193.52 -80.32)"/>
    <path d="M535.73,152a9.16,9.16,0,1,0-13-13l-42.34,42.34a131,131,0,0,1,13,12.93Z" transform="translate(-193.52 -80.32)"/>
  </g>
</svg>
