<svg xmlns:x="http://ns.adobe.com/Extensibility/1.0/" xmlns:i="http://ns.adobe.com/AdobeIllustrator/10.0/" xmlns:graph="http://ns.adobe.com/Graphs/1.0/" xmlns="http://www.w3.org/2000/svg" xmlns:xlink="http://www.w3.org/1999/xlink" xmlns:a="http://ns.adobe.com/AdobeSVGViewerExtensions/3.0/" version="1.1" x="0px" y="0px" viewBox="0 0 64 80" enable-background="new 0 0 64 64" xml:space="preserve"><g><path d="M2,37c0,5.9,28.8,6,30,6s30-0.1,30-6V27c0-2.1-2.9-2.9-4.5-3.4c-3-0.9-6.1-1.3-9.2-1.7c-6.5-0.7-13.1-1-19.7-0.8   c-6.4,0.2-12.9,0.5-19.2,1.8c-2.2,0.4-5.4,1-6.9,2.9C1.8,26.5,2,27.6,2,28.6C2,31.4,2,34.2,2,37z M4.1,26.9   c0.1-0.2,0.3-0.3,0.5-0.5c0.7-0.5,1.6-0.7,2.4-1c3.1-0.9,6.3-1.4,9.4-1.7C21.6,23.2,26.8,23,32,23c17.8,0,27.5,2.6,28,4   c0,0,0,0,0,0c-0.3,0.8-1.5,1.1-2.2,1.3c-1.4,0.4-2.9,0.8-4.3,1.1c-3.2,0.6-6.3,1-9.5,1.2c-6.5,0.5-13,0.6-19.5,0.3   c-3.3-0.1-6.5-0.4-9.7-0.8c-2.8-0.4-5.8-0.7-8.5-1.7C5.9,28.2,3.7,27.4,4.1,26.9z M4,29.4c3.8,2,8.7,2.4,12.9,2.8   c4.9,0.5,9.8,0.7,14.7,0.7c5,0,10-0.2,15-0.7c4.4-0.4,9.4-0.8,13.4-2.9c0,2.5,0,5,0,7.5c-0.4,1.4-10.2,4-28,4S4.4,38.4,4,37V29.4z"/></g><text x="0" y="79" fill="#000000" font-size="5px" font-weight="bold" font-family="'Helvetica Neue', Helvetica, Arial-Unicode, Arial, Sans-serif">Created by Akbar azis</text><text x="0" y="84" fill="#000000" font-size="5px" font-weight="bold" font-family="'Helvetica Neue', Helvetica, Arial-Unicode, Arial, Sans-serif">from the Noun Project</text></svg>