<svg id="레이어_1" data-name="레이어 1" xmlns="http://www.w3.org/2000/svg" viewBox="0 0 78.74 79.07">
  <title>주사기 아이콘_사선_2</title>
  <rect x="9.92" y="28.03" width="5.54" height="24.66" transform="translate(-24.95 20.79) rotate(-45)" fill="none"/>
  <rect x="23.17" y="14.77" width="5.53" height="24.6" transform="translate(-11.67 26.24) rotate(-44.96)" fill="none"/>
  <rect x="15.98" y="21.41" width="6.64" height="24.6" transform="translate(-18.31 23.52) rotate(-45)" fill="none"/>
  <polygon points="73.48 48.89 78.74 43.63 78.6 43.49 35.25 0.14 35.11 0 29.85 5.26 36.06 11.46 67.61 43.02 73.48 48.89"/>
  <path d="M25.74,9.72l-4-4L17.06,10.4l4,4L1.26,34.2c-2.92,2.92,0,10.81,6.57,19.62l-2.5,2.5L10.8,61.8,5.9,66.7,8.49,77.31l8.91-8.92,5.47,5.47,2.5-2.5C34.19,78,42.08,80.86,45,77.94l19.8-19.8,4,4,4.68-4.68-4-4-6.09-6.1L31.83,15.81ZM19.45,51,2,33.6l3.91-3.91L23.36,47.12Zm6.2-6.28L8.25,27.36,13,22.67,30.34,40.06Zm7-7L15.29,20.33l3.91-3.91,17.38,17.4Z" transform="translate(-0.12)"/>
</svg>
