<svg id="레이어_1" data-name="레이어 1" xmlns="http://www.w3.org/2000/svg" viewBox="0 0 226.33 226.33">
  <title>Dispenser ICON</title>
  <circle cx="111.66" cy="114.63" r="12.41"/>
  <polygon points="138.44 49.03 106.41 106.7 120.86 112.62 138.44 49.03"/>
  <path d="M171.63,85.75l19.94-8.26a86.18,86.18,0,0,0-12.38-19.23L164,73.5A64.84,64.84,0,0,1,171.63,85.75Z" transform="translate(-0.2 -0.17)"/>
  <path d="M156.16,65.2,171.41,50a86.07,86.07,0,0,0-19.08-13.13l-8.26,19.93A64,64,0,0,1,156.16,65.2Z" transform="translate(-0.2 -0.17)"/>
  <path d="M82.65,56.76,74.39,36.83A85.78,85.78,0,0,0,55.32,50L70.56,65.2A64,64,0,0,1,82.65,56.76Z" transform="translate(-0.2 -0.17)"/>
  <path d="M175.52,96.45a64.41,64.41,0,0,1,2.2,13.91h21.56a85.32,85.32,0,0,0-3.86-22.15Z" transform="translate(-0.2 -0.17)"/>
  <path d="M62.78,73.5,47.53,58.26A86.18,86.18,0,0,0,35.15,77.49l19.94,8.26A64.38,64.38,0,0,1,62.78,73.5Z" transform="translate(-0.2 -0.17)"/>
  <path d="M51.2,96.45,31.3,88.21a85.32,85.32,0,0,0-3.86,22.15H49A64.41,64.41,0,0,1,51.2,96.45Z" transform="translate(-0.2 -0.17)"/>
  <path d="M107.67,49.24V27.69a85.45,85.45,0,0,0-22.83,4.64l8.24,19.9A64.18,64.18,0,0,1,107.67,49.24Z" transform="translate(-0.2 -0.17)"/>
  <path d="M133.64,52.23l8.24-19.9a85.45,85.45,0,0,0-22.83-4.64V49.24A64.07,64.07,0,0,1,133.64,52.23Z" transform="translate(-0.2 -0.17)"/>
  <path d="M226.22,110.36a112.14,112.14,0,0,0-5.91-32.46c-1.21-3.62-2.28-7.28-3.83-10.73a112.92,112.92,0,0,0-18.24-28,113.11,113.11,0,0,0-7.78-8.3A112.84,112.84,0,0,0,119.05.74c-1.93-.09-3.74-.57-5.69-.57s-3.76.48-5.69.57a113.42,113.42,0,0,0-71.4,30.17,111.12,111.12,0,0,0-7.79,8.3,112.92,112.92,0,0,0-18.24,28A111.88,111.88,0,0,0,6.42,77.9,111.81,111.81,0,0,0,.5,110.36c0,1-.3,2-.3,3,0,2.88.63,5.58.84,8.4a112.8,112.8,0,0,0,6.87,31.84,108.72,108.72,0,0,0,4.73,10.35,113,113,0,0,0,18.29,26.51,111,111,0,0,0,8.3,7.78A112.73,112.73,0,0,0,65.9,215.75a111.42,111.42,0,0,0,10.62,4.09,112,112,0,0,0,31.15,6.08c1.93.1,3.74.58,5.69.58s3.76-.48,5.69-.57a112,112,0,0,0,31.15-6.09,111.42,111.42,0,0,0,10.62-4.09,112.33,112.33,0,0,0,26.67-17.54,111,111,0,0,0,8.3-7.78,112.71,112.71,0,0,0,18.29-26.51,109.87,109.87,0,0,0,4.73-10.35,112.46,112.46,0,0,0,6.87-31.84c.21-2.82.84-5.52.84-8.4C226.52,112.31,226.25,111.37,226.22,110.36Zm-17.36,39.09a102.84,102.84,0,0,1-4.74,10.34,102,102,0,0,1-16,23,101.81,101.81,0,0,1-8.3,7.78,102,102,0,0,1-23.18,15.2,102,102,0,0,1-10.61,4.1,101.62,101.62,0,0,1-27,5.26c-1.92.1-3.74.57-5.69.57s-3.76-.47-5.69-.57a101.7,101.7,0,0,1-27-5.26A102,102,0,0,1,70,205.79a102,102,0,0,1-23.18-15.2,103.48,103.48,0,0,1-8.3-7.78,102.26,102.26,0,0,1-15.94-23,100.73,100.73,0,0,1-4.75-10.34,101.92,101.92,0,0,1-6-27.72c-.23-2.82-.84-5.52-.84-8.4,0-1,.27-2,.3-3A101.44,101.44,0,0,1,16.37,82,103.32,103.32,0,0,1,20.2,71.3,102.3,102.3,0,0,1,36.1,46.83a100.21,100.21,0,0,1,7.79-8.3A102.08,102.08,0,0,1,68.2,21.88,98.79,98.79,0,0,1,78.66,17.4a101.45,101.45,0,0,1,29-5.88c1.93-.1,3.74-.57,5.69-.57s3.77.47,5.69.57a101.52,101.52,0,0,1,29,5.88,98.63,98.63,0,0,1,10.45,4.48,102.14,102.14,0,0,1,24.32,16.65,101.81,101.81,0,0,1,7.78,8.3,102,102,0,0,1,15.9,24.47A101,101,0,0,1,210.35,82a101.45,101.45,0,0,1,5.1,28.34c0,1,.3,2,.3,3,0,2.88-.62,5.58-.85,8.4A101.55,101.55,0,0,1,208.86,149.45Z" transform="translate(-0.2 -0.17)"/>
</svg>
