<svg id="레이어_1" data-name="레이어 1" xmlns="http://www.w3.org/2000/svg" viewBox="0 0 44.16 49.47">
  <title>주사기 아이콘_사선_3</title>
  <g>
    <polygon points="0 49.47 3.36 47.3 8.94 40.66 8.02 39.89 0 49.47" fill="#040000"/>
    <path d="M35.75,15.1l-.35-.28-6.25-5.2-.35-.29L28,8.68,27,7.8l-.38.46,1.05.87L7.56,33.27a.52.52,0,0,0,.05.74l2.05,1.71L8.58,37a.52.52,0,0,0,0,.73l2.84,2.36a.53.53,0,0,0,.73-.1l1.08-1.29,2.05,1.71a.54.54,0,0,0,.74-.1L36.13,16.2l1,.87.38-.45-1.05-.88ZM20,19.19l3.07,2.56-.38.45-3.07-2.55Zm-2.87,3.45,3.07,2.56-.38.45L16.74,23.1Zm-2.87,3.45,3.07,2.56-.38.45-3.07-2.55Z" fill="#040000"/>
    <polygon points="34.03 0 33.69 0.41 35.29 1.74 29.89 8.25 30.23 8.54 36.48 13.73 36.83 14.02 42.24 7.52 43.82 8.84 44.16 8.42 34.03 0" fill="#040000"/>
  </g>
</svg>
